<svg
   id="rainGauge"
   width="20%"
   height="20%">
  <path style="fill:#000000;fill-opacity:1;" d="m 125.02812,61.526099 c -11.2992,0.139791 -21.67651,0.976846 -29.03125,2.65625 -12.47311,2.84815 -23.29892,11.054032 -28.5,21.625 -3.244109,6.59351 -3.678529,20.508871 -0.9375,30.093751 1.79689,6.28343 9.06821,24.73373 19.8125,43.40625 l 5.4375,9.46875 -0.6875,13.75 c -0.70546,18.2638 -0.34664,20.806 3.125,22.3125 2.62463,1.13895 31.67338,3.21929 39.78125,2.84375 3.85,-0.17832 14.65,-0.58301 24,-0.90625 22.17348,-0.76656 44.61071,-4.3925 46.53125,-7.5 0.38498,-0.6229 0.97764,-0.68889 1.3125,-5.03125 0.67294,-8.72652 -1.09369,-9.47221 21.96875,-44.9375 14.93092,-22.96068 24.31659,-37.60997 27.71875,-43.3125 3.3783,-5.66252 9.78014,-12.707711 16.40625,-18.218751 10.61695,-4.238505 23.36337,-10.119099 25.6875,-14.625 4.0939,-7.937026 -39.52951,-13.032057 -38.5625,-5.5 0.52644,4.100423 -0.13277,11.268339 -0.84375,17 -4.50357,3.84604 -9.43374,8.37124 -14.21875,13.156249 -16.38025,16.380252 -21.23255,27.494112 -30.53125,27.625002 -3.98047,0.056 -6.66054,-0.37464 -7.53125,-1.25 -0.96849,-0.97365 -1.48179,-13.71647 -1.84375,-24.718752 -0.42604,-12.949569 -0.86219,-16.043967 -2.65625,-19.749999 -2.61093,-5.393467 -7.89395,-9.898935 -13.90625,-11.84375 -11.57903,-3.745504 -35.6916,-6.24796 -57.625,-6.34375 -1.64501,-0.0072 -3.29208,-0.01997 -4.90625,0 z m 5.71875,11.0625 c 13.21078,-0.02476 27.69211,0.595609 40.75,1.90625 9.7143,0.97504 11.81249,1.499991 13.75,3.4375 2.46571,2.46571 3.00968,5.80395 1.125,6.96875 -0.64298,0.39738 -17.40547,0.78395 -37.25,0.84375 -38.03884,0.11462 -47.41255,0.96116 -52.75,4.71875 -3.48221,2.45149 -4.12847,5.625749 -4.25,21.562501 -0.0913,11.97074 -0.28099,17.34916 -2.09375,18.71875 -2.96014,2.23646 -5.316,1.90275 -8.40625,-1.1875 -7.31918,-7.31918 -10.10072,-31.420722 -5.1875,-41.500001 2.7282,-5.596801 8.55666,-10.197329 15.46875,-12.25 6.977925,-2.072221 21.85846,-3.18691 38.84375,-3.21875 z" />
</svg>
